# xmcd CD database file generated by Grip 2.96
# 
# Track frame offsets:
#       150
#       16194
#       33083
#       51234
#       69887
#       89768
#       104020
#       118878
#       130176
#       149176
# 
# Disc length: 2654 seconds
# 
# Revision: 0
# Processed by: cddbd v1.4b42PL1 Copyright (c) Steve Scherf et al.
# Submitted via: Grip 2.96
# 
DISCID=920a5c0a
DTITLE=The Sultans - The Sultans
DYEAR=1900
DGENRE=
TTITLE0=The Thrill
TTITLE1=Quittin' Time
TTITLE2=My Baby
TTITLE3=Monkey See
TTITLE4=What You Get
TTITLE5=Shut up and Drink
TTITLE6=Love My Love
TTITLE7=Anything For You
TTITLE8=Beer For Breakfast
TTITLE9=Tres Flores
EXTD=
EXTT0=
EXTT1=
EXTT2=
EXTT3=
EXTT4=
EXTT5=
EXTT6=
EXTT7=
EXTT8=
EXTT9=
PLAYORDER=
